<svg height="496pt" viewBox="-48 0 496 496" width="496pt" xmlns="http://www.w3.org/2000/svg"><path d="m328 64h-256c-4.425781 0-8 3.585938-8 8v160c0 4.414062 3.574219 8 8 8h256c4.425781 0 8-3.585938 8-8v-160c0-4.414062-3.574219-8-8-8zm-8 16v108.6875l-10.34375-10.34375c-1.578125-1.582031-3.746094-2.382812-6.015625-2.335938-2.25.105469-4.34375 1.144532-5.792969 2.871094l-37.601562 45.121094h-.933594l-53.65625-53.65625c-2.816406-2.816406-7.273438-3.128906-10.457031-.742188l-23.976563 17.984376-29.246094-32.90625c-3.03125-3.414063-8.921874-3.414063-11.953124 0l-50.023438 56.28125v-130.960938zm-137.816406 144h-92.367188l46.183594-51.960938zm-.296875-24.414062 17.359375-13.027344 37.441406 37.441406h-33.09375zm99.191406 24.414062 23.457031-28.152344 15.464844 15.464844v12.6875zm0 0"/><path d="m256 168c13.230469 0 24-10.769531 24-24s-10.769531-24-24-24-24 10.769531-24 24 10.769531 24 24 24zm0-32c4.414062 0 8 3.59375 8 8s-3.585938 8-8 8-8-3.59375-8-8 3.585938-8 8-8zm0 0"/><path d="m392 256h-24v-216c0-4.414062-3.574219-8-8-8h-88v-24c0-4.414062-3.574219-8-8-8h-128c-4.425781 0-8 3.585938-8 8v24h-88c-4.425781 0-8 3.585938-8 8v216h-24c-4.425781 0-8 3.585938-8 8v32c0 4.414062 3.574219 8 8 8h118.167969l-37.992188 182.367188c-.496093 2.359374.105469 4.816406 1.625 6.679687 1.511719 1.863281 3.792969 2.953125 6.199219 2.953125h32c3.792969 0 7.0625-2.664062 7.832031-6.367188l18.671875-89.632812h91l18.671875 89.632812c.761719 3.703126 4.03125 6.367188 7.824219 6.367188h32c2.40625 0 4.6875-1.089844 6.199219-2.953125 1.519531-1.863281 2.121093-4.320313 1.625-6.679687l-37.992188-182.367188h118.167969c4.425781 0 8-3.585938 8-8v-32c0-4.414062-3.574219-8-8-8zm-248-240h112v16h-112zm-96 32h304v208h-304zm73.496094 432h-15.65625l36.664062-176h15.664063zm104-176 10 48h-71l10-48zm-67.664063 80 3.335938-16h77.664062l3.335938 16zm136.335938 96h-15.65625l-36.671875-176h15.664062zm89.832031-192h-368v-16h368zm0 0"/></svg>